<?xml version="1.0" encoding="UTF-8"?>
<svg version="1.1" viewBox="0 0 2048 1150" width="1070" height="601" xmlns="http://www.w3.org/2000/svg">
<path transform="translate(349,417)" d="m0 0h298l1 1v314l-1 1h-298l-1-1v-36l-15-2-32-8-15-6-16-9-20-14-5-4-9-7-7-8-13-13-7-9-11-15-7-10-9-17-4-9-6-12v-7l11-10 8-7 16-12 15-10 20-13 26-13 28-12 6-2 4 1v-2l12-3 9-2 20-2 1-41zm11 43-9 1-1 5v15l4 1h4l24 1 1 1 17 3 13 4 8 5 7 2 12 8 17 11 7 7 8 7 11 11 4 6-1 4-5 6-4 5-6 7v2l-4 2-12 12-9 6-7 8-11 8-16 8-9 5-10 1-1 2-5 1h-29l-6-1-1 1v18l10 1 1 1h18l2-1 10-1 12-3 17-5 14-5 5-4 3-3 9-4 10-6 5-4 16-11 7-6v-2l4-2 8-7 9-9 8-7 4-5 8-7 2-3-2-9-7-6-8-7-8-9-5-3-15-12-11-7-11-8-8-5-14-5-13-7-7-2-19-5-21-4zm-16 24-11 1-19 5-9 3-5 3-14 4-1 2-22 12-10 8-6 5-3 3-8 7-12 12-1 6 3 9 5 12 6 10 7 11 8 11 2 6 5 3 9 11h2l2 4 10 8 6 4 3 3 17 10 11 5 7 3 19 3h3v-23l-25-8-2-2-6-2-6-4-8-6-6-4-10-10-12-16-6-10-6-13-4-11 1-4 9-11 18-11 9-6 16-7 16-6h5l1-1 16-2v-27zm14 27-1 1-7 1 1 22 17 4 2 2 7 2 5 5 4 7 5 4 11 18 3 3h2l1-4 5-2 3-3v-2l4-2 8-6 3-3 5-3 4-4v-5l-12-12-8-5-3-3-17-8-17-5-13-2zm-21 25-9 3-11 4-3 3-5 3-11 11 1 8 9 19 5 5 2 5 3 1 7 8 5 2 2 4 16 8v-84zm219 51-13 11-7 6v2l-5 2-10 6-6 5v2l-5 2-15 11-16 8-10 6-15 7-15 6-28 7-10 2-1-2-1 1-11 2-36 1-1 1v19l7 4 26-1 2-1 30-3 23-4 1-1 9-2h8v-2l7-1 22-6 4-2 20-6 13-4 18-8 21-9 15-6 1-3 6-2 10-7 7-4v-2l4-2 5-2v-2l-16-9-11-6-22-13z" fill="#010000"/>
<path transform="translate(1277,477)" d="m0 0h104l19 2 18 4 12 5 11 6 12 11 8 10 7 14 5 16 3 19 1 10v17l-3 24-5 19-8 16-7 8-8 8-11 7-13 5-13 3-9 1-33 1h-89l-1-1zm58 45v117h32l13-2 10-3 9-5 10-9 5-8 4-12 2-11v-18l-4-17-5-10-9-10-9-6-11-4-14-2z" fill="#010000"/>
<path transform="translate(725,477)" d="m0 0h127l19 3 16 5 12 6 9 7 7 7 7 11 5 11 4 17 1 5v133l-54 1-2-1-1-28v-61l-2-29-3-13-6-11-8-7-10-4-10-2-52-1v156l-6 1h-52l-1-1z" fill="#010000"/>
<path transform="translate(1667,477)" d="m0 0h78l5 12 20 50 17 43 36 90 3 7-1 4h-60l-3-5-10-31-96-1-3 10-9 26-6 1h-49l-3-1 3-9 18-46 21-53 23-58 15-38zm37 39-11 29-24 63v3h70l-2-9-21-58-10-27z" fill="#010000"/>
<path transform="translate(941,477)" d="m0 0h63l3 8 15 53 15 52 13 46v2h2l1-8 13-43 23-77 9-31 1-2h60l-3 10-24 74-20 61-14 43-5 16-1 1-83 1-2-1-20-61-13-41-17-52-15-47z" fill="#010000"/>
<path transform="translate(1183,477)" d="m0 0h59v205l-8 1h-50l-1-1z" fill="#010000"/>
<path transform="translate(1503,477)" d="m0 0h59v205l-58 1-1-3z" fill="#010000"/>
<path transform="translate(1855,652)" d="m0 0 10 2 6 5 4 8v7l-3 7-4 5-6 3h-11l-7-4-4-5-2-5v-8l4-8 6-5zm-4 5-5 3-4 7v8l4 7 5 3 8 1 6-3 5-6v-12l-4-6-4-2z" fill="#010000"/>
<path transform="translate(1852,661)" d="m0 0h8l4 3v6l-2 4 2 3-1 4-4-1-3-6-2-1 1 5-1 3-4-1v-18zm2 4 1 5h4v-5z" fill="#010000"/>
</svg>
